PathFileType	4	(X/Y/Z)	./resultDataOpenSim/trcMotMarkerGrf/sub06/qtm-05-08.trc
DataRate	CameraRate	NumFrames	NumMarkers	Units	OrigDataRate	OrigDataStartFrame	OrigNumFrames
250.000000	250.000000	11	24	m	250.000000	191	507
Frame#	Time	L.Toe.Tip			R.Toe.Tip			L.Ankle.Lat			R.Ankle.Lat			L.Ankle.Med			R.Ankle.Med			L.Heel			R.Heel			L.Knee.Lat			R.Knee.Lat			L.Knee.Med			R.Knee.Med			L.Thigh.Upper			R.Thigh.Upper			L.ASIS			R.ASIS			V.Sacral			L.Acromium			R.Acromium			C7			L.Elbow			R.Elbow			L.Wrist.Lat			R.Wrist.Lat
		X1	Y1	Z1	X2	Y2	Z2	X3	Y3	Z3	X4	Y4	Z4	X5	Y5	Z5	X6	Y6	Z6	X7	Y7	Z7	X8	Y8	Z8	X9	Y9	Z9	X10	Y10	Z10	X11	Y11	Z11	X12	Y12	Z12	X13	Y13	Z13	X14	Y14	Z14	X15	Y15	Z15	X16	Y16	Z16	X17	Y17	Z17	X18	Y18	Z18	X19	Y19	Z19	X20	Y20	Z20	X21	Y21	Z21	X22	Y22	Z22	X23	Y23	Z23	X24	Y24	Z24

191	0.76	0.064070063	-0.064632182	-0.0015012497	-0.71374982	0.063021246	0.13532746	-0.059512507	-0.033462066	-0.02039848	-0.70504683	0.20006648	0.17031193	-0.056624582	-0.018954319	0.067612371	-0.66299812	0.18411345	0.091507424	-0.13590299	-0.057860279	0.027290781	-0.72016491	0.24845836	0.10626653	0.046014246	0.32514142	-0.051577433	-0.33462197	0.28720447	0.23518758	0.024163012	0.32833433	0.06882908	-0.32977624	0.26282637	0.10506206	-0.13940122	0.66942554	-0.1161181	-0.2589293	0.62940977	0.21167935	-0.086690221	0.70343484	-0.05246597	-0.14399864	0.6848499	0.18442035	-0.3014611	0.77202526	0.035328804	-0.15969083	1.1547072	-0.1705989	-0.17378513	1.1830392	0.19258762	-0.24601758	1.2129841	0.002251791	-0.26647156	0.86539421	-0.20834807	-0.24948346	0.88345941	0.31090954	-0.20666562	0.63500567	-0.26664329	-0.044528837	0.74037002	0.32178483
192	0.764	0.06404886	-0.064674978	-0.0015874647	-0.69890358	0.06678408	0.13793661	-0.059277727	-0.033704049	-0.020455172	-0.69018029	0.20386041	0.17068429	-0.056347311	-0.01901482	0.067572057	-0.64827932	0.1874473	0.091828526	-0.1358829	-0.057731626	0.027385518	-0.70451991	0.25203229	0.10644402	0.049259032	0.3233961	-0.0528918	-0.31931531	0.28436409	0.23637862	0.029388598	0.32704472	0.067506266	-0.31564505	0.26212561	0.10578244	-0.13430209	0.6694596	-0.11695773	-0.2514671	0.6290719	0.21114771	-0.080682895	0.70362206	-0.053649006	-0.13714155	0.68509016	0.18368986	-0.29533594	0.77249095	0.035348074	-0.15094408	1.1544666	-0.17076732	-0.16636028	1.1831574	0.19213006	-0.23811354	1.213497	0.0015959725	-0.25646437	0.8644961	-0.20882425	-0.24400538	0.88393297	0.3095946	-0.19456079	0.63442821	-0.26657975	-0.041489634	0.73790517	0.32269562
193	0.768	0.064007899	-0.064721034	-0.0016726928	-0.68335406	0.070530311	0.14048582	-0.059074564	-0.033940625	-0.020551634	-0.67497594	0.20743031	0.17102095	-0.056118211	-0.019075514	0.06750447	-0.63324371	0.19054329	0.092221675	-0.1358803	-0.057635265	0.027418512	-0.6883677	0.2553076	0.10668973	0.052179148	0.32169676	-0.054160353	-0.30380925	0.28188787	0.23743268	0.034023251	0.32564633	0.066218542	-0.30143288	0.26170118	0.10638166	-0.12906525	0.66982153	-0.11778085	-0.24403464	0.62907197	0.21050439	-0.07478713	0.70396885	-0.054823666	-0.13040706	0.68559317	0.18304682	-0.28934592	0.77327287	0.035535378	-0.14228605	1.1544382	-0.17088438	-0.15914735	1.1834882	0.19174025	-0.23036834	1.2141512	0.00094883751	-0.24648627	0.86377204	-0.20927028	-0.23858989	0.88455259	0.30821306	-0.18233781	0.63408638	-0.26640769	-0.038608356	0.73559294	0.32357484
194	0.772	0.063948454	-0.064777887	-0.0017394046	-0.66725145	0.074157016	0.14280781	-0.05890499	-0.034177723	-0.020676951	-0.65937574	0.21073654	0.17137581	-0.055935997	-0.019132389	0.067417788	-0.61779866	0.19342204	0.092686521	-0.13589728	-0.057572586	0.027410513	-0.67198606	0.25822138	0.10704222	0.054812141	0.32008545	-0.055323615	-0.28811324	0.27982718	0.23835329	0.038058013	0.32418694	0.065056953	-0.2870814	0.2614662	0.1068995	-0.12368871	0.67047156	-0.11854505	-0.2366281	0.62942775	0.20973846	-0.068932442	0.70449979	-0.055954145	-0.12381097	0.68632419	0.18249009	-0.28351083	0.77436143	0.035882112	-0.13376162	1.1546318	-0.17096325	-0.15213544	1.1840349	0.19143083	-0.22276714	1.2149476	0.00033164816	-0.23654355	0.86322024	-0.20969567	-0.23323807	0.88531147	0.30677803	-0.16999851	0.63397711	-0.26611817	-0.035889111	0.73344449	0.32442003
195	0.776	0.063878622	-0.064841917	-0.0017815766	-0.65079608	0.077478949	0.1448588	-0.058776118	-0.034415054	-0.020811051	-0.64330841	0.21377888	0.17180544	-0.055784493	-0.019187245	0.067331022	-0.60187149	0.19603055	0.09315725	-0.13593126	-0.057536001	0.027391331	-0.65566301	0.26076917	0.10753263	0.057193392	0.31860108	-0.056336679	-0.27223966	0.27821563	0.23912665	0.041542674	0.32270874	0.06410944	-0.27260504	0.26136501	0.10737783	-0.11819568	0.67136029	-0.11922798	-0.22924548	0.63011633	0.20888412	-0.063063538	0.70523017	-0.057007028	-0.11736569	0.68725524	0.18200864	-0.2778321	0.77573603	0.036367766	-0.12539901	1.1550518	-0.1710074	-0.14531651	1.1847943	0.19121001	-0.21528926	1.2158804	-0.00022825306	-0.22662924	0.86285023	-0.21011859	-0.2279654	0.88620554	0.30529217	-0.15755152	0.63409334	-0.26570401	-0.033334499	0.7314688	0.32522869
196	0.78	0.063813381	-0.064892677	-0.001808201	-0.63414506	0.080303904	0.14672496	-0.058694185	-0.034643004	-0.020932998	-0.62679638	0.21655891	0.17232688	-0.055645753	-0.01924339	0.067261368	-0.58548637	0.19832939	0.093581257	-0.13597802	-0.057518047	0.02738567	-0.63947645	0.26304009	0.10813405	0.059354346	0.31728007	-0.057177804	-0.25620947	0.27707303	0.23974731	0.04452203	0.32125726	0.063428009	-0.25800622	0.26140291	0.10784377	-0.1125775	0.67244341	-0.11984459	-0.22188576	0.63104417	0.20805142	-0.057193394	0.7061596	-0.057957084	-0.11105349	0.68836833	0.18159241	-0.27223649	0.77732932	0.036910047	-0.11719781	1.1556899	-0.17101255	-0.13868766	1.185757	0.19107931	-0.20792469	1.2169534	-0.0007138663	-0.2167318	0.86266806	-0.21055616	-0.22280855	0.88722607	0.30375242	-0.14501074	0.63442829	-0.26516483	-0.030935721	0.72967654	0.32600544
197	0.784	0.06375717	-0.064913619	-0.0018377908	-0.61729896	0.082634389	0.14850817	-0.058657556	-0.034847603	-0.021028143	-0.60993738	0.21908455	0.17293261	-0.055520071	-0.019301752	0.067215739	-0.56882404	0.20042734	0.09400386	-0.13603268	-0.057516372	0.027404098	-0.62331808	0.26519058	0.10868327	0.061343046	0.31615002	-0.057843528	-0.24004509	0.27640659	0.24023235	0.046927008	0.3198612	0.06297189	-0.24319568	0.26163511	0.1083043	-0.10682012	0.67368566	-0.1204337	-0.21454389	0.63207687	0.20738932	-0.051374323	0.707279	-0.058799746	-0.10482547	0.68965155	0.18123528	-0.26652467	0.77900198	0.037318584	-0.10913819	1.1565337	-0.17097269	-0.13223818	1.1869118	0.19103547	-0.20067003	1.2181834	-0.0011157195	-0.20683903	0.86265522	-0.21103456	-0.21781463	0.88835582	0.3021628	-0.13238725	0.6349817	-0.2645036	-0.028667681	0.72808091	0.3267646
198	0.788	0.063694764	-0.064910806	-0.0018864822	-0.60013873	0.084667082	0.15022786	-0.058654069	-0.035018875	-0.021091237	-0.59281832	0.22138746	0.17361843	-0.055422848	-0.019359286	0.067191263	-0.55211122	0.20250464	0.094510579	-0.1360921	-0.057529644	0.027442356	-0.60712212	0.2673688	0.10903506	0.063230191	0.31521555	-0.058338262	-0.22375847	0.27621182	0.24060923	0.048612469	0.31853812	0.062627763	-0.22807345	0.26209351	0.10870619	-0.10100676	0.67505714	-0.12101469	-0.20720428	0.63314178	0.20697207	-0.045631345	0.70858118	-0.059551233	-0.09863818	0.69109419	0.18093139	-0.26044337	0.78060053	0.037358331	-0.10120248	1.1575789	-0.17088065	-0.12594405	1.1882489	0.19107588	-0.19351207	1.2195824	-0.0014294743	-0.19694101	0.86278126	-0.21157779	-0.2130102	0.88958435	0.30053924	-0.11968404	0.63575932	-0.26371953	-0.026494914	0.72669441	0.3275175
199	0.792	0.063611936	-0.06489883	-0.0019584687	-0.582544	0.086591639	0.15182864	-0.058669833	-0.03515514	-0.021127748	-0.57550644	0.22350023	0.17437213	-0.055362625	-0.019410306	0.067180505	-0.53542606	0.20461673	0.095106586	-0.13615646	-0.057552037	0.027487447	-0.59098327	0.26959882	0.10932305	0.065064067	0.31445209	-0.058668979	-0.20735468	0.27647435	0.2408978	0.049605189	0.31735945	0.062350651	-0.21264338	0.26277278	0.10893784	-0.095299077	0.67653452	-0.12157143	-0.19984942	0.63428636	0.20674459	-0.039947178	0.71006051	-0.060230465	-0.092478865	0.69268552	0.18067123	-0.25389689	0.78209353	0.036936091	-0.093390925	1.1588237	-0.17072822	-0.11977982	1.1897604	0.19119948	-0.1864214	1.2211401	-0.0016633563	-0.18707375	0.86304466	-0.21211772	-0.20836077	0.89092362	0.29890563	-0.1069123	0.6367608	-0.2628092	-0.024393812	0.7255246	0.32825622
200	0.796	0.063511679	-0.064882842	-0.0020466286	-0.56445971	0.088461589	0.15325339	-0.058702982	-0.035260835	-0.021154896	-0.55809816	0.22542008	0.17515408	-0.055333065	-0.019448706	0.0671753	-0.51870166	0.20668957	0.095716345	-0.13622618	-0.057573496	0.027527341	-0.5750134	0.27173525	0.10981338	0.06683337	0.31382011	-0.058847984	-0.1908604	0.2771614	0.24109743	0.050189235	0.3164509	0.062221292	-0.19702355	0.26369968	0.1089274	-0.089731416	0.6781063	-0.12208029	-0.19250558	0.63561349	0.206604	-0.034295986	0.71170245	-0.060848022	-0.086349312	0.69441202	0.18043739	-0.2470509	0.78360872	0.036191389	-0.085712087	1.1602561	-0.17051253	-0.11372615	1.191437	0.19140173	-0.17936982	1.2228334	-0.0018320677	-0.17730571	0.86347016	-0.21252443	-0.20376523	0.89240098	0.2972877	-0.094110838	0.63797341	-0.26177534	-0.022384007	0.7245732	0.32895864
201	0.8	0.063405026	-0.064862083	-0.0021399265	-0.54589353	0.090227284	0.15449671	-0.05876559	-0.035338896	-0.021197558	-0.54070686	0.22711706	0.17591963	-0.055327995	-0.019471731	0.067170449	-0.50184191	0.20863519	0.096258793	-0.13629929	-0.057584668	0.027557083	-0.55917237	0.2735899	0.11056208	0.068509263	0.31329199	-0.058888961	-0.17432881	0.27822985	0.24119062	0.05064861	0.31587823	0.062317685	-0.18138254	0.26494652	0.10866796	-0.084126514	0.67976818	-0.12252691	-0.18526429	0.63717634	0.20647707	-0.028659515	0.7134841	-0.061411972	-0.080240626	0.6962572	0.18020686	-0.24019673	0.78530034	0.035372218	-0.078161427	1.1618585	-0.17024694	-0.10776454	1.1932652	0.19167203	-0.17235241	1.2246497	-0.0019386168	-0.16764401	0.86406807	-0.21279329	-0.19911465	0.89404044	0.2957065	-0.081333606	0.63938227	-0.2606348	-0.020539306	0.72383651	0.32960512
